<svg width="20.000000" height="20.000000" viewBox="0 0 20 20" fill="none" xmlns="http://www.w3.org/2000/svg" xmlns:xlink="http://www.w3.org/1999/xlink">
	<desc>
			Created with Pixso.
	</desc>
	<defs/>
	<circle id="Ellipse 2" cx="10.000000" cy="10.000000" r="10.000000" fill="#005BFF" fill-opacity="1.000000"/>
	<path id="Vector" d="M4.57 13.12C4.03 13.37 3.4 13.04 3.29 12.44C3.21 12.03 3.42 11.61 3.78 11.44C4.32 11.19 4.95 11.52 5.06 12.12C5.14 12.53 4.93 12.95 4.57 13.12ZM3.81 10.58C2.77 10.81 2.2 11.95 2.63 12.96C2.96 13.71 3.76 14.14 4.54 13.98C5.59 13.75 6.15 12.61 5.72 11.6C5.4 10.85 4.59 10.42 3.81 10.58Z" fill="#161619" fill-opacity="1.000000" fill-rule="nonzero"/>
	<path id="Vector" d="M4.57 13.12C4.03 13.37 3.4 13.04 3.29 12.44C3.21 12.03 3.42 11.61 3.78 11.44C4.32 11.19 4.95 11.52 5.06 12.12C5.14 12.53 4.93 12.95 4.57 13.12ZM3.81 10.58C2.77 10.81 2.2 11.95 2.63 12.96C2.96 13.71 3.76 14.14 4.54 13.98C5.59 13.75 6.15 12.61 5.72 11.6C5.4 10.85 4.59 10.42 3.81 10.58Z" fill="#FFFFFF" fill-opacity="1.000000" fill-rule="nonzero"/>
	<path id="Vector" d="M6.14 9.87C5.91 9.94 5.79 10.22 5.92 10.45C6.02 10.62 6.22 10.69 6.4 10.63L7.46 10.29L6.52 13.02C6.49 13.11 6.58 13.2 6.67 13.17L9.24 12.34C9.42 12.28 9.55 12.11 9.53 11.91C9.5 11.65 9.24 11.49 9.01 11.57L7.73 11.98L8.66 9.26C8.69 9.17 8.61 9.08 8.52 9.11L6.14 9.87Z" fill="#161619" fill-opacity="1.000000" fill-rule="nonzero"/>
	<path id="Vector" d="M6.14 9.87C5.91 9.94 5.79 10.22 5.92 10.45C6.02 10.62 6.22 10.69 6.4 10.63L7.46 10.29L6.52 13.02C6.49 13.11 6.58 13.2 6.67 13.17L9.24 12.34C9.42 12.28 9.55 12.11 9.53 11.91C9.5 11.65 9.24 11.49 9.01 11.57L7.73 11.98L8.66 9.26C8.69 9.17 8.61 9.08 8.52 9.11L6.14 9.87Z" fill="#FFFFFF" fill-opacity="1.000000" fill-rule="nonzero"/>
	<path id="Vector" d="M16.43 6.55C16.26 6.65 16.2 6.85 16.25 7.03L16.67 8.31L14.08 7.32C13.99 7.29 13.9 7.37 13.93 7.47L14.78 10.11C14.83 10.29 15.01 10.42 15.2 10.4C15.46 10.37 15.62 10.11 15.54 9.87L15.13 8.58L17.71 9.57C17.8 9.61 17.89 9.52 17.86 9.43L17.01 6.78C16.94 6.54 16.66 6.42 16.43 6.55Z" fill="#161619" fill-opacity="1.000000" fill-rule="nonzero"/>
	<path id="Vector" d="M16.43 6.55C16.26 6.65 16.2 6.85 16.25 7.03L16.67 8.31L14.08 7.32C13.99 7.29 13.9 7.37 13.93 7.47L14.78 10.11C14.83 10.29 15.01 10.42 15.2 10.4C15.46 10.37 15.62 10.11 15.54 9.87L15.13 8.58L17.71 9.57C17.8 9.61 17.89 9.52 17.86 9.43L17.01 6.78C16.94 6.54 16.66 6.42 16.43 6.55Z" fill="#FFFFFF" fill-opacity="1.000000" fill-rule="nonzero"/>
	<path id="Vector" d="M11.06 8.2C9.8 8.61 9.03 9.67 9.32 10.58C9.61 11.5 10.86 11.91 12.12 11.51C13.37 11.11 14.15 10.04 13.85 9.13C13.56 8.22 12.31 7.8 11.06 8.2ZM11.3 8.97C12.17 8.7 12.96 8.95 13.1 9.37C13.23 9.79 12.73 10.46 11.87 10.74C11 11.01 10.21 10.76 10.08 10.34C9.94 9.92 10.44 9.25 11.3 8.97Z" fill="#161619" fill-opacity="1.000000" fill-rule="nonzero"/>
	<path id="Vector" d="M11.06 8.2C9.8 8.61 9.03 9.67 9.32 10.58C9.61 11.5 10.86 11.91 12.12 11.51C13.37 11.11 14.15 10.04 13.85 9.13C13.56 8.22 12.31 7.8 11.06 8.2ZM11.3 8.97C12.17 8.7 12.96 8.95 13.1 9.37C13.23 9.79 12.73 10.46 11.87 10.74C11 11.01 10.21 10.76 10.08 10.34C9.94 9.92 10.44 9.25 11.3 8.97Z" fill="#FFFFFF" fill-opacity="1.000000" fill-rule="nonzero"/>
</svg>
