<svg width="19.266907" height="19.266846" viewBox="0 0 19.2669 19.2668" fill="none" xmlns="http://www.w3.org/2000/svg" xmlns:xlink="http://www.w3.org/1999/xlink">
	<desc>
			Created with Pixso.
	</desc>
	<defs/>
	<circle id="Ellipse 2" cx="9.633453" cy="9.633545" r="9.633453" fill="#FF5226" fill-opacity="1.000000"/>
	<mask id="mask89_80" mask-type="alpha" maskUnits="userSpaceOnUse" x="0.000000" y="0.000000" width="19.266907" height="19.266846">
		<circle id="Ellipse 3" cx="9.633453" cy="9.633545" r="9.633453" fill="#FF5226" fill-opacity="1.000000"/>
	</mask>
	<g mask="url(#mask89_80)">
		<path id="path16" d="M7.8 1.63C7.92 1.67 8.02 1.75 8.12 1.81C9.34 2.57 10.55 3.33 11.76 4.08C11.91 4.19 12.09 4.27 12.23 4.4C12.22 4.54 12.16 4.67 12.13 4.81C11.64 6.66 11.14 8.5 10.66 10.35C10.81 10.2 10.94 10.03 11.08 9.87C12.19 8.57 13.29 7.27 14.4 5.97C14.45 5.93 14.48 5.84 14.56 5.86C14.7 5.93 14.83 6.02 14.97 6.11C15.89 6.69 16.83 7.26 17.74 7.85C17.33 9.43 16.94 11.01 16.53 12.58C16.52 12.65 16.51 12.71 16.5 12.78C17.23 12.63 17.96 12.47 18.68 12.31C18.79 12.29 18.89 12.28 19 12.24C18.65 13.4 18.06 14.49 17.26 15.44C15.69 15.73 14.11 16 12.53 16.29C12.5 16.29 12.46 16.29 12.43 16.3C12.75 14.96 13.1 13.62 13.44 12.27C13.49 12.06 13.56 11.85 13.59 11.64C12.4 13.01 11.24 14.41 10.05 15.78C8.79 15.58 7.54 15.37 6.29 15.16C6.3 15.01 6.35 14.87 6.39 14.73C6.9 12.81 7.41 10.88 7.92 8.96C7.8 9.12 7.69 9.28 7.58 9.44C5.93 11.84 4.29 14.24 2.64 16.63C1.47 15.63 0.55 14.38 0 12.99C0.05 12.95 0.09 12.89 0.13 12.83C2.68 9.1 5.25 5.37 7.8 1.63Z" fill="#FFDD04" fill-opacity="1.000000" fill-rule="nonzero"/>
	</g>
</svg>
