<svg width="20.000000" height="11.000000" viewBox="0 0 20 11" fill="none" xmlns="http://www.w3.org/2000/svg" xmlns:xlink="http://www.w3.org/1999/xlink">
	<desc>
			Created with Pixso.
	</desc>
	<defs>
		<linearGradient x1="-0.371744" y1="3.816324" x2="30.706314" y2="-4.882650" id="paint_linear_13_100_0" gradientUnits="userSpaceOnUse">
			<stop stop-color="#935DF3"/>
			<stop offset="1.000000" stop-color="#55368D"/>
		</linearGradient>
	</defs>
	<path id="Vector" d="M16.02 3.18C15.19 3.18 14.45 3.42 13.81 3.85L13.81 0L12.04 0L12.04 7.1C12.04 9.26 13.83 11 16.01 11C18.19 11 20 9.27 20 7.08C20 4.89 18.23 3.18 16.02 3.18ZM8.02 7.6L6.4 3.45L5.17 3.45L3.54 7.6L1.92 3.45L0 3.45L2.83 10.74L4.07 10.74L5.77 6.4L7.49 10.74L8.72 10.74L11.55 3.45L9.64 3.45L8.02 7.6ZM16.01 9.26C14.81 9.26 13.81 8.31 13.81 7.09C13.81 5.86 14.76 4.93 16.02 4.93C17.29 4.93 18.23 5.9 18.23 7.09C18.23 8.27 17.23 9.26 16.01 9.26Z" fill="url(#paint_linear_13_100_0)" fill-opacity="1.000000" fill-rule="nonzero"/>
</svg>
